<svg xmlns="http://www.w3.org/2000/svg" viewBox="0 0 1080.04 1080.04"><defs><style>.cls-1{fill:#fff;}</style></defs><title>STCsvg</title><g id="Capa_8" data-name="Capa 8"><rect class="cls-1" x="0.02" y="0.02" width="1080" height="1080"/></g><g id="Capa_3" data-name="Capa 3"><polygon points="267.63 294.89 267.63 324.77 218.07 324.72 218.07 502.05 176.52 502.05 176.52 324.72 151.01 324.72 151.01 294.84 267.63 294.89"/><rect x="330.55" y="472.17" width="0.03" height="29.88"/><polygon points="406.56 294.84 406.56 324.72 317.5 324.72 317.5 502.05 275.96 502.05 275.96 413.79 267.63 413.79 267.63 502.05 226.08 502.05 226.08 333.94 267.63 333.94 267.63 383.9 275.96 383.9 275.96 294.81 317.5 294.81 317.5 294.84 406.56 294.84"/><polygon points="406.56 472.17 406.56 502.05 328.21 502.05 328.21 331.59 369.75 331.59 369.75 383.9 397.33 383.9 397.33 413.79 369.75 413.79 369.75 472.17 406.56 472.17"/><polygon points="804.76 539.48 804.76 786.72 760.25 786.72 744.79 709.64 742.62 709.64 742.62 786.89 695.52 786.89 695.52 585.14 749.3 585.17 756.29 612.11 756.29 539.48 804.76 539.48"/><rect x="850.07" y="472.17" width="0.03" height="29.88"/><polygon points="928.45 472.17 928.45 502.05 850.1 502.05 850.1 332.1 891.64 332.1 891.64 384.45 919.22 384.45 919.22 414.33 891.64 414.33 891.64 472.17 928.45 472.17"/><polygon points="736.89 294.84 736.89 324.72 634.78 324.72 634.78 502.05 593.24 502.05 593.24 324.72 569.39 324.72 569.39 294.84 736.89 294.84"/><rect x="593.24" y="294.81" width="41.55" height="0.03"/><path d="M802.37,501.88" transform="translate(-0.32 0.02)"/><path d="M383.53,625.48V576.21A36.74,36.74,0,0,0,352.67,540a36.1,36.1,0,0,0-5.92-.49H275.13v247.4h48.78V686.51a5.41,5.41,0,0,1,5.4-5.41h0a5.4,5.4,0,0,1,5.4,5.41V786.86h48.82V699.52a36.73,36.73,0,0,0-31.78-36.39.27.27,0,0,1,0-.53A37.56,37.56,0,0,0,383.53,625.48Zm-54.22,18.07h0a5.4,5.4,0,0,1-5.4-5.4V581.92a5.4,5.4,0,0,1,5.4-5.4h0a5.4,5.4,0,0,1,5.4,5.4v56.23A5.4,5.4,0,0,1,329.31,643.55Z" transform="translate(-0.32 0.02)"/><path d="M211.94,656.48V581.92a4.31,4.31,0,0,0-8.62,0V745.37a4.31,4.31,0,0,0,4.31,4.31h0a4.31,4.31,0,0,0,4.31-4.31V669.12H261.1v82.37A35.48,35.48,0,0,1,225.61,787H187.17a35.47,35.47,0,0,1-35.48-35.48V575.08a35.47,35.47,0,0,1,35.48-35.48h38.44a35.48,35.48,0,0,1,35.49,35.48v48.21a33.18,33.18,0,0,1-33.16,33.19Z" transform="translate(-0.32 0.02)"/><path d="M351.67,539.5V540a37.33,37.33,0,0,0-5.92-.48Z" transform="translate(-0.32 0.02)"/><path d="M674,501.54H708.3a28.9,28.9,0,0,0,28.91-28.9V361.92A28.91,28.91,0,0,0,708.3,333H674a28.91,28.91,0,0,0-28.91,28.91V472.64A28.9,28.9,0,0,0,674,501.54Zm14.77-134.86a3.28,3.28,0,0,1,3.58-3.27,3.45,3.45,0,0,1,3,3.5V470a3.45,3.45,0,0,1-3,3.5,3.28,3.28,0,0,1-3.58-3.27Z" transform="translate(-0.32 0.02)"/><path d="M468.28,539.65h-38.5a35.5,35.5,0,0,0-35.53,35.48V751.52A35.51,35.51,0,0,0,429.78,787h38.5a35.5,35.5,0,0,0,35.53-35.48V575.13A35.5,35.5,0,0,0,468.28,539.65ZM453.86,743.8c0,3-1.95,5.4-4.35,5.4h-1c-2.4,0-4.35-2.41-4.35-5.4V583.44c0-3.31,2.16-6,4.83-6s4.83,2.69,4.83,6Z" transform="translate(-0.32 0.02)"/><path d="M739.84,539.58l7.31,36.4H684.69c-.29,3.48-.6,6.93-.89,10.41q-1.29,14.6-2.56,29.27l-2.76,31.64c-.89,10.42-1.81,20.85-2.7,31.28-.83,9.4-1.63,18.82-2.47,28.25-.66,7.5-1.29,15-1.95,22.49a222.23,222.23,0,0,1-2.82,23.13c-1.49,7.53-3.33,15.32-7.67,21.78a24.81,24.81,0,0,1-5.66,6c-6.09,4.6-13.93,6.64-21.49,6.64-14.16,0-26-7.18-29.16-16.89l-.09-.26-.23-.89-2.12-7.67a2.87,2.87,0,0,0-2.79-2.13h-.09a2.91,2.91,0,0,0-2.78,2.1l-2.19,7.73-.29,1,0,.09c-3.11,9.68-15,16.89-29.19,16.89a7.58,7.58,0,0,1-.84,0c-.63,0-1.26,0-1.89-.05l-1.84-.18c-.61-.05-1.18-.14-1.78-.23s-1.18-.2-1.79-.34-1.14-.23-1.72-.38-1.12-.31-1.67-.48-1.09-.35-1.63-.52l-1.55-.6c-.52-.23-1-.44-1.53-.69s-1-.46-1.46-.72-.92-.52-1.38-.81-.89-.54-1.32-.83-.87-.6-1.27-.92a12.91,12.91,0,0,1-1.18-1c-.37-.31-.74-.66-1.12-1s-.69-.69-1-1l-.95-1.12c-8.42-10.51-9.83-24.59-11-37.55-.34-4-.71-8-1.06-12.07-.49-5.37-1-10.74-1.44-16.11q-.86-9.66-1.72-19.25-.95-10.69-1.9-21.38-1-11.25-2-22.53c-.66-7.55-1.35-15.11-2-22.66-.66-7.3-1.29-14.6-2-21.9q-.87-10-1.78-20.08-.78-8.7-1.55-17.35-.62-6.78-1.21-13.59l-.78-8.88c-.08-1.07-.2-2.07-.28-3.13l49.39,0,6.14,169.14h3.34l9.68-162h40.62l9.92,162.73h3.16l5.8-169.88,30,0v0Z" transform="translate(-0.32 0.02)"/><path d="M512.5,294.65v.06l-14.39,0c.4,0,.8,0,1.21,0Z" transform="translate(-0.32 0.02)"/><path d="M519.69,373.57V328.84a3.28,3.28,0,0,0-3.29-3.28h-.62a3.28,3.28,0,0,0-3.28,3.28v50.54a3.31,3.31,0,0,0,3.31,3.3h15.6a30.37,30.37,0,0,1,30.4,30.37v58.58a30.44,30.44,0,0,1-30.4,30.4H499.32A30.08,30.08,0,0,1,469.23,472V452.5a30.08,30.08,0,0,1,30.09-30.08H512.5v45.39a3.28,3.28,0,0,0,3.28,3.28h.62a3.28,3.28,0,0,0,3.29-3.28V421.57a4.56,4.56,0,0,0-.45-1.95l-.24-.49a4.45,4.45,0,0,0-2.14-2.12c-2.22-1-7.32-2.4-18.84-3a2.74,2.74,0,0,1-.49,0,29.78,29.78,0,0,1-5.77-.89A30.12,30.12,0,0,1,469.23,384V324.73A30.09,30.09,0,0,1,490,296.14a29.12,29.12,0,0,1,7.78-1.46h.35l14.39,0,7.19,0,15.6,0a30.45,30.45,0,0,1,6.06,1.24,29.3,29.3,0,0,1,20.46,27.93V344.3a29.27,29.27,0,0,1-29.28,29.27Z" transform="translate(-0.32 0.02)"/><path d="M879.11,633.68v-53a4.29,4.29,0,0,0-4.29-4.28h0a4.28,4.28,0,0,0-4.28,4.28v60.13a3.71,3.71,0,0,0,3.71,3.71h18.84a36.22,36.22,0,0,1,36.25,36.22v69.87a36.29,36.29,0,0,1-36.25,36.26H854.81A35.9,35.9,0,0,1,818.93,751v-23.2a35.89,35.89,0,0,1,35.88-35.88h15.73V745.7a4.28,4.28,0,0,0,4.28,4.28h0a4.29,4.29,0,0,0,4.29-4.28V690.85a4.93,4.93,0,0,0-.5-2.17l-.37-.77a5,5,0,0,0-2.39-2.37c-2.59-1.19-8.64-2.9-22.58-3.65a3.69,3.69,0,0,1-.58,0,35.72,35.72,0,0,1-33.76-35.81V575.43a35.89,35.89,0,0,1,24.75-34.1,34.82,34.82,0,0,1,9.28-1.75h.41l17.17,0,8.57,0,18.6,0a36.19,36.19,0,0,1,7.24,1.48,35,35,0,0,1,24.39,33.31v24.29a34.93,34.93,0,0,1-34.91,34.92Z" transform="translate(-0.32 0.02)"/><path d="M535.29,294.76l-15.6,0v-.08h12.84C533.45,294.65,534.37,294.71,535.29,294.76Z" transform="translate(-0.32 0.02)"/><path d="M605.71,773.23" transform="translate(-0.32 0.02)"/><polygon points="928.1 294.81 928.1 324.69 839.32 324.69 839.32 501.9 802.06 501.9 789.1 437.35 787.26 437.35 787.26 502.05 747.84 502.05 747.84 294.81 784.42 294.81 786.34 303.06 786.4 303.26 787.09 306.13 798.72 355.66 798.72 294.81 928.1 294.81"/></g></svg>